<svg width="24" height="24" viewBox="0 0 24 24" version="1.1" xmlns="http://www.w3.org/2000/svg" xmlns:xlink="http://www.w3.org/1999/xlink">
<title>select-pages&#38;artboards</title>
<desc>Created using Figma</desc>
<g id="Canvas" transform="translate(-1286 277)">
<g id="icons/m-size/select-pages&#38;artboards">
<g id="Rectangle 2.2">
<use xlink:href="#path0_fill" transform="translate(1286 -277)" fill="#F2F2F2"/>
</g>
<g id="Rectangle 2.11">
<use xlink:href="#path0_fill" transform="translate(1286 -269)" fill="#EB5757"/>
</g>
<g id="Rectangle 2.12">
<use xlink:href="#path0_fill" transform="translate(1286 -261)" fill="#F2C94C"/>
</g>
<g id="Rectangle 2.13">
<use xlink:href="#path1_fill" transform="matrix(0.707107 0.707107 -0.707107 0.707107 1298 -259.828)" fill="#828282"/>
</g>
<g id="Rectangle 2.14">
<use xlink:href="#path1_fill" transform="matrix(0.707107 0.707107 -0.707107 0.707107 1298 -267.828)" fill="#6FCF97"/>
</g>
<g id="Rectangle 2.15">
<use xlink:href="#path1_fill" transform="matrix(0.707107 0.707107 -0.707107 0.707107 1298 -275.828)" fill="#56CCF2"/>
</g>
<g id="Rectangle 2.3">
<use xlink:href="#path2_fill" transform="translate(1304 -275)" fill="#BB6BD9"/>
</g>
<g id="Rectangle 2.16">
<use xlink:href="#path2_fill" transform="translate(1304 -267)" fill="#F2F2F2"/>
</g>
<g id="Rectangle 2.17">
<use xlink:href="#path2_fill" transform="translate(1304 -259)" fill="#EB5757"/>
</g>
</g>
</g>
<defs>
<path id="path0_fill" d="M 0 0L 8 0L 8 8L 0 8L 0 0Z"/>
<path id="path1_fill" d="M 0 0L 4 0L 4 4L 0 4L 0 0Z"/>
<path id="path2_fill" d="M 0 2C 0 0.895431 0.895431 0 2 0C 3.10457 0 4 0.895431 4 2C 4 3.10457 3.10457 4 2 4C 0.895431 4 0 3.10457 0 2Z"/>
</defs>
</svg>
