<svg width="25" height="26" viewBox="0 0 25 26" version="1.1" xmlns="http://www.w3.org/2000/svg" xmlns:xlink="http://www.w3.org/1999/xlink">
<title>select-artboards</title>
<desc>Created using Figma</desc>
<g id="Canvas" transform="translate(-1370 278)">
<g id="icons/m-size/select-artboards">
<g id="Rectangle 2.23">
<use xlink:href="#path0_fill" transform="matrix(0.707107 0.707107 -0.707107 0.707107 1390 -277.014)" fill="#EB5757"/>
</g>
<g id="Rectangle 2.24">
<use xlink:href="#path0_fill" transform="matrix(0.707107 0.707107 -0.707107 0.707107 1382.02 -277.014)" fill="#F2F2F2"/>
</g>
<g id="Rectangle 2.25">
<use xlink:href="#path0_fill" transform="matrix(0.707107 0.707107 -0.707107 0.707107 1374.02 -277.014)" fill="#F2C94C"/>
</g>
<g id="Rectangle 2.26">
<use xlink:href="#path0_fill" transform="matrix(0.707107 0.707107 -0.707107 0.707107 1390 -269)" fill="#F2C94C"/>
</g>
<g id="Rectangle 2.27">
<use xlink:href="#path0_fill" transform="matrix(0.707107 0.707107 -0.707107 0.707107 1382.02 -269)" fill="#6FCF97"/>
</g>
<g id="Rectangle 2.28">
<use xlink:href="#path0_fill" transform="matrix(0.707107 0.707107 -0.707107 0.707107 1374.02 -269)" fill="#BB6BD9"/>
</g>
<g id="Rectangle 2.29">
<use xlink:href="#path0_fill" transform="matrix(0.707107 0.707107 -0.707107 0.707107 1390 -261)" fill="#56CCF2"/>
</g>
<g id="Rectangle 2.30">
<use xlink:href="#path0_fill" transform="matrix(0.707107 0.707107 -0.707107 0.707107 1382.02 -261)" fill="#F2C94C"/>
</g>
<g id="Rectangle 2.31">
<use xlink:href="#path0_fill" transform="matrix(0.707107 0.707107 -0.707107 0.707107 1374.02 -261)" fill="#828282"/>
</g>
</g>
</g>
<defs>
<path id="path0_fill" d="M 0 0L 5.67003 0L 5.67003 5.68335L 0 5.68335L 0 0Z"/>
</defs>
</svg>
