<?xml version="1.0" encoding="UTF-8"?>
<svg width="14px" height="20px" viewBox="0 0 14 20" version="1.1" xmlns="http://www.w3.org/2000/svg" xmlns:xlink="http://www.w3.org/1999/xlink">
    <title>Group</title>
    <desc>Created with Sketch.</desc>
    <defs></defs>
    <g id="Page-1" stroke="none" stroke-width="1" fill="none" fill-rule="evenodd">
        <g id="Group" fill-rule="nonzero">
            <path d="M6.667,10.00033 C6.667,8.15928 8.15928,6.667 10.00033,6.667 C11.84139,6.667 13.33367,8.15928 13.33367,10.00033 C13.33367,11.84139 11.84139,13.33367 10.00033,13.33367 C8.15928,13.33367 6.667,11.84139 6.667,10.00033 Z" id="path0_fill" fill="#B6B6B6"></path>
            <path d="M0,16.66633 C0,14.82528 1.49228,13.333 3.33333,13.333 L6.66667,13.333 L6.66667,16.66633 C6.66667,18.50739 5.17439,19.99967 3.33333,19.99967 C1.49228,19.99967 0,18.50739 0,16.66633 Z" id="path1_fill" fill="#D4D4D4"></path>
            <path d="M6.667,0 L6.667,6.66667 L10.00033,6.66667 C11.84139,6.66667 13.33367,5.17439 13.33367,3.33333 C13.33367,1.49228 11.84139,0 10.00033,0 L6.667,0 Z" id="path2_fill" fill="#DEDEDE"></path>
            <path d="M0,3.33333 C0,5.17439 1.49228,6.66667 3.33333,6.66667 L6.66667,6.66667 L6.66667,0 L3.33333,0 C1.49228,0 0,1.49228 0,3.33333 Z" id="path3_fill" fill="#989898"></path>
            <path d="M0,10.00033 C0,11.84139 1.49228,13.33367 3.33333,13.33367 L6.66667,13.33367 L6.66667,6.667 L3.33333,6.667 C1.49228,6.667 0,8.15928 0,10.00033 Z" id="path3_fill" fill="#ACACAC"></path>
        </g>
    </g>
</svg>