<svg width="40" height="60" viewBox="0 0 40 60" version="1.1" xmlns="http://www.w3.org/2000/svg" xmlns:xlink="http://www.w3.org/1999/xlink">
<title>Project-logo</title>
<desc>Created using Figma</desc>
<g id="Canvas" transform="translate(600 297)">
<g id="Project-logo">
<g id="Rectangle">
<use xlink:href="#path0_fill" transform="translate(-580 -297)" fill="#EB5757"/>
</g>
<g id="Rectangle">
<use xlink:href="#path1_fill" transform="translate(-580 -277)" fill="#6FCF97"/>
</g>
<g id="Rectangle">
<use xlink:href="#path1_fill" transform="matrix(1 2.44929e-16 -2.44929e-16 1 -580 -257)" fill="#BB6BD9"/>
</g>
<g id="Rectangle">
<use xlink:href="#path2_fill" transform="translate(-600 -257)" fill="#2D9CDB"/>
</g>
<g id="Rectangle">
<use xlink:href="#path3_fill" transform="matrix(6.12323e-17 1 -1 6.12323e-17 -580 -277)" fill="#F2C94C"/>
</g>
</g>
</g>
<defs>
<path id="path0_fill" d="M 0 10C 0 4.47715 4.47715 0 10 0C 15.5228 0 20 4.47715 20 10C 20 15.5228 15.5228 20 10 20L 0 20L 0 10Z"/>
<path id="path1_fill" d="M 0 0L 10 0C 15.5228 0 20 4.47715 20 10C 20 15.5228 15.5228 20 10 20L 0 20L 0 0Z"/>
<path id="path2_fill" d="M 0 10C 0 4.47715 4.47715 0 10 0L 20 0L 20 20L 10 20C 4.47715 20 0 15.5228 0 10Z"/>
<path id="path3_fill" d="M 0 10C 0 4.47715 4.47715 0 10 0L 20 0L 20 10C 20 15.5228 15.5228 20 10 20C 4.47715 20 0 15.5228 0 10Z"/>
</defs>
</svg>
